Run_20002
nRows=4
nColumns=164

# SIMM Motion File Header:
name Run_20002
datacolumns 164
datarows 4
otherdata 1
range 0.00833300 0.03333300
endheader
time	pelvis_tilt	pelvis_list	pelvis_rotation	pelvis_tx	pelvis_ty	pelvis_tz	hip_flexion_r	hip_adduction_r	hip_rotation_r	knee_angle_r	ankle_angle_r	hip_flexion_l	hip_adduction_l	hip_rotation_l	knee_angle_l	ankle_angle_l	lumbar_extension	lumbar_bending	lumbar_rotation	arm_flex_r	arm_add_r	arm_rot_r	elbow_flex_r	pro_sup_r	arm_flex_l	arm_add_l	arm_rot_l	elbow_flex_l	pro_sup_l	subtalar_angle_r	mtp_angle_r	subtalar_angle_l	mtp_angle_l	wrist_flex_r	wrist_dev_r	wrist_flex_l	wrist_dev_l	LASI_tx	LASI_ty	LASI_tz	RASI_tx	RASI_ty	RASI_tz	LPSI_tx	LPSI_ty	LPSI_tz	RPSI_tx	RPSI_ty	RPSI_tz	RTH1_tx	RTH1_ty	RTH1_tz	RTH2_tx	RTH2_ty	RTH2_tz	RTH3_tx	RTH3_ty	RTH3_tz	LTH1_tx	LTH1_ty	LTH1_tz	LTH2_tx	LTH2_ty	LTH2_tz	LTH3_tx	LTH3_ty	LTH3_tz	RTB1_tx	RTB1_ty	RTB1_tz	RTB2_tx	RTB2_ty	RTB2_tz	RTB3_tx	RTB3_ty	RTB3_tz	LTB1_tx	LTB1_ty	LTB1_tz	LTB2_tx	LTB2_ty	LTB2_tz	LTB3_tx	LTB3_ty	LTB3_tz	RCAL_tx	RCAL_ty	RCAL_tz	RTOE_tx	RTOE_ty	RTOE_tz	RMT5_tx	RMT5_ty	RMT5_tz	LCAL_tx	LCAL_ty	LCAL_tz	LTOE_tx	LTOE_ty	LTOE_tz	LMT5_tx	LMT5_ty	LMT5_tz	LACR_tx	LACR_ty	LACR_tz	RACR_tx	RACR_ty	RACR_tz	CLAV_tx	CLAV_ty	CLAV_tz	C7_tx	C7_ty	C7_tz	RUA1_tx	RUA1_ty	RUA1_tz	RUA2_tx	RUA2_ty	RUA2_tz	RUA3_tx	RUA3_ty	RUA3_tz	RLEL_tx	RLEL_ty	RLEL_tz	RMEL_tx	RMEL_ty	RMEL_tz	LUA1_tx	LUA1_ty	LUA1_tz	LUA2_tx	LUA2_ty	LUA2_tz	LUA3_tx	LUA3_ty	LUA3_tz	LLEL_tx	LLEL_ty	LLEL_tz	LMEL_tx	LMEL_ty	LMEL_tz	RFAsuperior_tx	RFAsuperior_ty	RFAsuperior_tz	RFAradius_tx	RFAradius_ty	RFAradius_tz	RFAulna_tx	RFAulna_ty	RFAulna_tz	LFAsuperior_tx	LFAsuperior_ty	LFAsuperior_tz	LFAradius_tx	LFAradius_ty	LFAradius_tz	LFAulna_tx	LFAulna_ty	LFAulna_tz
      0.00833300	     -5.43419185	      0.24999401	      2.54283810	      0.88388378	      1.07129457	     -0.33336575	     36.43680614	      2.66686370	      1.20162659	    -55.52853872	     10.41732968	     -1.28758225	      4.58956714	      3.38928164	    -25.05638900	     14.56198552	    -11.37283354	     -1.01431861	    -15.18218845	    -37.82522470	    -21.00055907	      3.00871972	     94.98324979	    107.69627730	    -12.30583750	    -19.47366869	      2.56409145	    122.52092728	     96.25355292	      0.00000000	      0.00000000	      0.00000000	      0.00000000	      0.00000000	      0.00000000	      0.00000000	      0.00000000	      0.87366925	      1.07953637	     -0.46440147	      0.88413149	      1.08781225	     -0.20572050	      0.70097180	      1.13157168	     -0.36523038	      0.70340478	      1.12560342	     -0.28221105	      0.85962851	      0.92463074	     -0.15102424	      0.95656356	      0.84572200	     -0.16457370	      0.93250353	      0.71868500	     -0.19127212	      0.77405587	      0.87435886	     -0.50332966	      0.80863482	      0.74364902	     -0.48525294	      0.71817171	      0.64544142	     -0.46189153	      1.01688113	      0.45438145	     -0.27729449	      0.97540615	      0.39938222	     -0.20805702	      0.94623637	      0.30448534	     -0.27663119	      0.69683108	      0.40666791	     -0.39052908	      0.62942562	      0.34023542	     -0.43668413	      0.59079062	      0.23682675	     -0.36550805	      0.78630714	      0.19332068	     -0.28236292	      1.00220384	      0.10695915	     -0.30636978	      0.93247682	      0.09506206	     -0.21497189	      0.42504818	      0.15896534	     -0.34954648	      0.64053187	      0.06938586	     -0.32791069	      0.56594266	      0.06133649	     -0.41669004	      0.93014229	      1.55807775	     -0.51252289	      0.87785503	      1.56740565	     -0.17202062	      0.94685840	      1.50452462	     -0.29855024	      0.83139512	      1.59694290	     -0.35332112	      0.80729234	      1.49607334	     -0.09751660	      0.76177625	      1.41637887	     -0.10475180	      0.69285319	      1.45450086	     -0.09186893	      0.59256232	      1.35480423	     -0.05999950	      0.57899790	      1.35979570	     -0.14211788	      0.91495789	      1.46421136	     -0.58636741	      0.91952274	      1.39096540	     -0.57244631	      0.82587230	      1.37940131	     -0.59429286	      0.82725296	      1.21353606	     -0.63383592	      0.76826867	      1.20945774	     -0.56706897	      0.66216363	      1.27173833	     -0.05582462	      0.77752167	      1.15468267	     -0.13403070	      0.73098609	      1.12326542	     -0.08666407	      0.91735891	      1.22136807	     -0.59254252	      1.02939667	      1.26167148	     -0.45546497	      1.04334677	      1.19228892	     -0.47357950
      0.01666700	     -5.61125104	     -0.27003563	      2.37310641	      0.88553332	      1.07508202	     -0.33299881	     35.95791554	      3.17650781	      0.99864305	    -51.03831703	     10.30187116	     -2.44980097	      3.87573803	      3.16706753	    -24.03847404	     12.22840228	    -11.02130379	     -0.43997617	    -15.21862849	    -39.06441130	    -21.14734683	      2.50140609	     95.55177883	    107.06284770	    -12.70909609	    -19.37373098	      2.72942468	    123.66488365	     96.80468850	      0.00000000	      0.00000000	      0.00000000	      0.00000000	      0.00000000	      0.00000000	      0.00000000	      0.00000000	      0.87582388	      1.08234002	     -0.46510808	      0.88549513	      1.09270602	     -0.20520095	      0.70282460	      1.13538618	     -0.36566421	      0.70451626	      1.13007970	     -0.28227332	      0.85960671	      0.92889040	     -0.14994897	      0.95531080	      0.84861921	     -0.16342799	      0.93008445	      0.72161147	     -0.19173468	      0.77274026	      0.87793410	     -0.50273289	      0.80401201	      0.74693618	     -0.48494065	      0.71111301	      0.65045941	     -0.46229738	      1.02233515	      0.45517948	     -0.27676181	      0.98389684	      0.39741161	     -0.20786485	      0.96160836	      0.30099147	     -0.27729776	      0.68599856	      0.41158042	     -0.39173972	      0.61782056	      0.34600741	     -0.43804425	      0.57925443	      0.24214436	     -0.36712384	      0.80946380	      0.17989576	     -0.28468323	      1.03041702	      0.10801424	     -0.30874879	      0.96125561	      0.09018458	     -0.21812518	      0.41395208	      0.16724760	     -0.35067691	      0.62550581	      0.06916105	     -0.32850332	      0.55049185	      0.06260604	     -0.41593774	      0.93201360	      1.56274818	     -0.51145152	      0.87791513	      1.57229315	     -0.17224744	      0.94730278	      1.50915944	     -0.29738205	      0.83227751	      1.60094871	     -0.35335942	      0.80645799	      1.50257826	     -0.09762892	      0.75991038	      1.42361811	     -0.10524473	      0.69144860	      1.46291751	     -0.09393881	      0.58929814	      1.36441083	     -0.06236879	      0.57704272	      1.36924370	     -0.14461725	      0.91757526	      1.46908804	     -0.58539321	      0.92163838	      1.39606148	     -0.57171003	      0.82796483	      1.38482266	     -0.59401106	      0.82895689	      1.21895515	     -0.63427182	      0.76915959	      1.21515221	     -0.56771759	      0.65786818	      1.28056662	     -0.05725805	      0.77312865	      1.16208262	     -0.13371248	      0.72534726	      1.13100769	     -0.08753952	      0.91851934	      1.22788417	     -0.59220980	      1.02822448	      1.27079225	     -0.45405431	      1.04355248	      1.20157472	     -0.47163201
      0.02500000	     -5.74868264	     -0.74291799	      2.20722737	      0.88731679	      1.07869003	     -0.33249314	     35.27851759	      3.68159016	      0.90008761	    -46.34114286	     10.09228382	     -3.61889474	      3.20246025	      2.93251325	    -23.07544211	      9.84743621	    -10.69970217	      0.07190632	    -15.24975820	    -40.25663082	    -21.24847408	      1.99685716	     96.07639303	    106.53130727	    -13.12630761	    -19.30030957	      2.92182143	    124.73917875	     97.34019247	      0.00000000	      0.00000000	      0.00000000	      0.00000000	      0.00000000	      0.00000000	      0.00000000	      0.00000000	      0.87791461	      1.08514352	     -0.46512453	      0.88694838	      1.09739589	     -0.20470495	      0.70479616	      1.13898183	     -0.36594568	      0.70591261	      1.13429561	     -0.28234289	      0.85957569	      0.93280323	     -0.14892091	      0.95397363	      0.85106680	     -0.16228881	      0.92725571	      0.72410927	     -0.19209283	      0.77168747	      0.88145169	     -0.50226075	      0.79974972	      0.75016115	     -0.48471028	      0.70453910	      0.65543855	     -0.46271929	      1.02730859	      0.45581305	     -0.27636831	      0.99207224	      0.39537480	     -0.20778946	      0.97664262	      0.29774181	     -0.27800780	      0.67565062	      0.41646514	     -0.39297612	      0.60666741	      0.35177504	     -0.43940026	      0.56811555	      0.24746480	     -0.36886606	      0.83265970	      0.16698649	     -0.28705216	      1.05807686	      0.10991733	     -0.31119522	      0.98980165	      0.08627804	     -0.22115675	      0.40327741	      0.17565603	     -0.35201356	      0.61049181	      0.06895159	     -0.32911324	      0.53522328	      0.06407239	     -0.41553479	      0.93383610	      1.56713996	     -0.51032289	      0.87804006	      1.57702874	     -0.17229260	      0.94764869	      1.51352158	     -0.29638302	      0.83316711	      1.60475828	     -0.35333336	      0.80563482	      1.50889521	     -0.09774812	      0.75823886	      1.43051144	     -0.10565037	      0.69017041	      1.47087074	     -0.09592554	      0.58635978	      1.37348311	     -0.06463713	      0.57537356	      1.37812142	     -0.14702569	      0.91998069	      1.47371318	     -0.58436086	      0.92360867	      1.40089772	     -0.57098165	      0.82989129	      1.39003886	     -0.59371226	      0.83051917	      1.22417631	     -0.63466163	      0.77000706	      1.22057496	     -0.56836753	      0.65395928	      1.28894492	     -0.05862909	      0.76911308	      1.16904941	     -0.13344539	      0.72017482	      1.13831453	     -0.08835092	      0.91955206	      1.23406468	     -0.59186470	      1.02698968	      1.27933160	     -0.45264775	      1.04360598	      1.21025989	     -0.46971215
      0.03333300	     -5.85673622	     -1.12932855	      2.04171092	      0.88925466	      1.08199877	     -0.33181290	     34.42911701	      4.14400532	      0.92285383	    -41.52190327	      9.94971780	     -4.73050695	      2.60756146	      2.67918961	    -22.26951579	      7.45487717	    -10.39095493	      0.46774704	    -15.26713068	    -41.34646006	    -21.28599127	      1.51609851	     96.51669497	    106.15191028	    -13.57124653	    -19.26016924	      3.14351052	    125.68191537	     97.86993442	      0.00000000	      0.00000000	      0.00000000	      0.00000000	      0.00000000	      0.00000000	      0.00000000	      0.00000000	      0.87996315	      1.08789809	     -0.46434095	      0.88854324	      1.10170535	     -0.20426046	      0.70693572	      1.14221379	     -0.36602260	      0.70771367	      1.13808415	     -0.28241346	      0.85958813	      0.93618636	     -0.14796495	      0.95253135	      0.85279399	     -0.16118707	      0.92384126	      0.72592592	     -0.19226892	      0.77103600	      0.88484218	     -0.50199678	      0.79607635	      0.75325849	     -0.48461390	      0.69878212	      0.66032441	     -0.46312893	      1.03152038	      0.45618396	     -0.27616863	      0.99967860	      0.39327338	     -0.20786315	      0.99107488	      0.29491823	     -0.27878229	      0.66614341	      0.42127388	     -0.39422669	      0.59632227	      0.35750691	     -0.44076278	      0.55765781	      0.25276970	     -0.37078388	      0.85581024	      0.15500211	     -0.28949586	      1.08470157	      0.11315983	     -0.31364834	      1.01779722	      0.08396954	     -0.22396660	      0.39333762	      0.18428254	     -0.35366562	      0.59553013	      0.06877974	     -0.32976414	      0.52028835	      0.06592086	     -0.41578017	      0.93556720	      1.57108642	     -0.50912957	      0.87826562	      1.58148437	     -0.17213010	      0.94790996	      1.51745041	     -0.29559440	      0.83406066	      1.60822429	     -0.35320425	      0.80483115	      1.51489418	     -0.09789355	      0.75686807	      1.43683192	     -0.10592474	      0.68908745	      1.47804777	     -0.09778895	      0.58394785	      1.38164434	     -0.06672749	      0.57415072	      1.38603757	     -0.14925290	      0.92205164	      1.47794224	     -0.58327540	      0.92534136	      1.40530695	     -0.57028067	      0.83153513	      1.39491211	     -0.59338704	      0.83184976	      1.22904935	     -0.63498066	      0.77072422	      1.22556843	     -0.56901034	      0.65067427	      1.29654795	     -0.05987547	      0.76571760	      1.17528603	     -0.13322331	      0.71577083	      1.14487710	     -0.08904016	      0.92038393	      1.23968444	     -0.59149620	      1.02567249	      1.28690306	     -0.45123610	      1.04341546	      1.21794950	     -0.46785376
